<svg width="177" height="164" viewBox="0 0 177 164" fill="none" xmlns="http://www.w3.org/2000/svg">
<path d="M0 138.593C0 109.173 23.85 85.3228 53.2705 85.3228H93.2773C100.603 85.3228 106.541 91.2611 106.541 98.5865V138.593C106.541 168.014 82.691 191.864 53.2705 191.864C23.85 191.864 0 168.014 0 138.593Z" fill="#A5D2F8"/>
<path d="M181.403 116.423C181.403 99.9742 168.069 86.6401 151.62 86.6401H129.253C125.158 86.6401 121.838 89.9602 121.838 94.0556V116.423C121.838 132.871 135.172 146.205 151.62 146.205C168.069 146.205 181.403 132.871 181.403 116.423Z" fill="#A5D2F8"/>
<path d="M124.006 33.1849C124.006 14.8574 138.863 0 157.191 0C175.518 0 190.375 14.8574 190.375 33.1849C190.375 51.5124 175.518 66.3698 157.191 66.3698H137.269C129.944 66.3698 124.006 60.4314 124.006 53.1061V33.1849Z" fill="#A5D2F8"/>
<path d="M105.593 44.6737C105.593 31.9635 95.2889 21.6599 82.5788 21.6599C69.8686 21.6599 59.565 31.9635 59.565 44.6737C59.565 57.3838 69.8686 67.6874 82.5788 67.6874H96.3941C101.474 67.6874 105.593 63.5692 105.593 58.489V44.6737Z" fill="#A5D2F8"/>
</svg>
